<svg width="756" height="132" viewBox="0 0 756 132" fill="none" xmlns="http://www.w3.org/2000/svg">
<path d="M65.5666 85.8504C59.2133 81.751 50.5911 81.0316 36.6859 84.8959C21.8618 88.3852 16.9193 90.6219 10.4283 86.1317C7.93464 83.926 7.04059 80.3745 7.70819 75.2588C9.25661 66.9193 13.4411 58.8938 20.8739 49.9917C25.0225 45.3608 28.871 41.3867 33.9525 39.7908C37.8471 38.7897 37.483 41.8555 37.0118 42.2939C36.5145 42.2939 35.6791 42.3724 35.0335 42.7944C34.5095 43.2014 33.0713 44.5157 32.994 46.2837C32.8826 48.9901 35.6787 48.4268 36.8848 46.9408C38.1848 45.2663 40.106 42.0596 38.5948 39.071C37.9613 38.0073 36.8668 37.2721 35.508 37.0217C30.8548 36.7554 26.5214 38.9772 22.5218 41.4335C13.7751 47.5195 6.77829 55.9527 2.81921 65.1836C0.536818 70.7532 -1.52745 78.7314 1.56661 85.2249C3.96041 89.7305 8.92964 92.1237 14.8584 91.6233C19.0166 91.1857 24.0448 89.8395 27.4265 89.0267C30.8085 88.2124 48.1192 82.2523 53.807 92.6259C53.807 92.6259 55.6984 88.9483 60.4252 88.8698C64.3113 88.5107 69.9176 89.9966 74 93C72.6398 90.9512 68.7836 87.9315 65.5666 85.8504Z" fill="#5E5E5E"/>
<path d="M38.4825 50.8511C35.2393 48.7487 28.7208 52.768 23.4997 59.6625C18.7253 65.8469 16.6637 73.0345 18.9074 76.3583C22.2448 80.2693 28.4407 74.5806 31.0755 71.5356L31.4154 71.1797C33.2072 69.2781 34.5913 66.9901 35.9314 64.7945C35.9314 64.7945 37.1628 62.7848 37.2216 62.6918C37.9827 62.5533 38.8994 62.3368 39.9325 62.0429C39.9177 62.089 35.9801 68.6284 36.3818 71.8742C36.5069 72.8645 36.4115 76.4819 39.9859 77.5793C44.7501 78.3682 48.5543 74.7193 51.9105 71.4729C51.9105 71.4729 52.4823 70.9323 52.8058 70.6237C52.7239 70.9473 52.6173 71.3793 52.6173 71.3793C51.2225 76.1718 53.1026 77.1775 54.2786 77.5484C57.8329 78.5695 62.0791 73.4676 62.093 73.4676C61.9827 75.0746 61.6609 76.4039 63.3755 77.4709C64.9937 78.0433 66.6316 77.1705 67.8767 76.3511C72.361 73.2287 75.9737 68.3411 78.8916 64.1166H77.0303C77.0083 64.1166 72.4376 70.6624 69.4695 72.085C69.4648 72.085 68.9245 72.359 68.6135 72.1423C68.228 71.8176 68.38 71.1423 68.6179 70.6641C68.6329 70.633 80.0781 51.0201 80.0781 51.0201H74.6743C74.6743 51.0201 74.084 51.9637 74.0359 52.0256C73.9995 51.9947 73.913 51.8325 73.8531 51.7547C70.5051 47.179 62.9234 54.2173 57.2153 62.3794C55.0177 65.518 52.2198 69.0517 49.3186 71.6024C49.3186 71.6024 45.0205 75.495 43.1843 72.6982C42.513 71.5232 42.7195 69.8052 43.0981 68.677C45.2363 62.6631 48.9206 57.2054 53.1133 53.9125C54.2966 53.001 55.5832 52.7374 56.2214 53.124C56.8298 53.4801 56.928 54.3605 56.5431 54.9636C55.5667 54.9328 54.7843 55.226 54.1484 55.8753C52.8956 57.174 52.4603 58.4264 52.8586 59.6015C54.7937 62.3222 58.6528 56.9423 58.4662 53.6649C58.3995 52.4898 57.7652 51.3771 56.8181 50.8355C55.4068 50.0011 53.2539 50.2172 51.8606 50.8823C49.9953 51.5777 47.043 54.0046 45.3196 55.8909C43.1501 58.2566 39.429 60.8843 38.2655 60.5901C38.6459 59.585 41.7889 53.2315 38.4825 50.8511ZM64.5356 60.2502C65.5868 58.8127 68.6464 54.9632 69.3923 54.3141C71.901 52.1335 72.9036 53.0929 72.9904 53.7727C70.6492 57.9156 67.8859 62.6619 65.2879 66.9288C65.2933 66.9136 64.4749 68.1499 64.4749 68.1499C63.3274 69.8808 62.1721 71.3651 60.2875 72.4006C60.0188 72.4786 59.5758 72.5096 59.281 72.2923C58.9261 72.0603 58.786 71.6738 58.826 71.2718C58.9391 69.9427 60.3087 65.8777 64.5356 60.2502ZM35.138 62.739C35.138 62.739 35.0907 62.8786 35.0676 62.9242C35.0616 62.9242 32.7114 66.7112 32.7114 66.7112C31.2931 68.5821 29.5223 70.9325 27.3087 72.0605C26.6525 72.2768 25.7454 72.4165 25.2832 71.8449C24.3034 70.6852 24.8083 69.0773 25.2186 67.779L25.364 67.3151C26.5403 64.1618 28.4065 61.3786 30.2233 58.7969C30.246 58.7817 30.2968 58.7663 30.3152 58.7663C30.3197 58.7817 30.327 58.7817 30.33 58.8127C31.4699 60.9766 33.6074 61.981 35.206 62.4456C35.2156 62.4456 35.226 62.461 35.226 62.492C35.2263 62.5381 35.2002 62.6004 35.138 62.739ZM37.3644 58.2718C37.3539 58.3026 36.3177 60.6524 36.3177 60.6524C36.1678 60.7759 35.9309 60.7143 35.6594 60.6524L35.1942 60.5746C33.7333 60.1266 32.6315 59.168 32.2917 58.0242C31.8233 55.798 33.7481 54.0511 34.596 53.4176C35.4097 52.8606 36.6747 52.5669 37.4093 53.1392C37.8623 53.6649 38.034 54.3449 38.034 55.0874C38.0342 56.0918 37.7204 57.2202 37.3644 58.2718ZM105.68 65.4442C105.159 64.3315 103.922 63.6202 102.604 63.6973C98.3228 64.0841 94.1356 67.5623 91.937 72.5552C90.7834 75.1217 90.1537 77.2394 89.7409 80.6094C91.0722 79.0949 93.7874 76.6061 96.8686 75.2455C96.8686 75.2455 97.2878 72.0147 99.4257 69.1392C100.235 67.9484 101.854 66.0317 103.671 66.5416C105.26 67.0674 104.701 71.4116 102.591 75.6156C101.029 78.7079 98.6383 81.8006 96.2199 83.9334C94.0818 85.7266 90.9183 87.8909 88.1505 86.2215C86.4072 85.2017 85.5181 83.0676 85.7058 80.316C86.5387 72.5094 90.1356 65.8618 95.2826 58.287C100.59 51.2531 106.44 44.0337 114.321 40.1837C115.929 39.38 117.417 39.1945 118.704 39.6892C118.704 39.6892 111.306 43.7086 107.779 51.1447C106.882 53.031 105.635 55.5811 106.891 57.8383C107.548 59.013 108.713 59.1059 109.652 59.044C113.975 58.0544 116.768 54.0661 119.049 50.4181C120.372 47.6509 121.548 44.8991 121.548 41.8381C121.548 41.4672 121.529 40.9727 121.497 40.6013C123.562 39.5196 127.797 41.4361 127.797 41.4361C131.106 42.5187 138.153 47.8524 140.53 48.8722C141.689 47.5429 143.595 45.5335 144.668 44.5284L143.114 43.5852C140.628 42.0857 138 40.6632 135.413 39.2566C129.538 36.0879 124.756 37.2007 122.323 38.0665C121.366 38.4064 120.492 38.7002 120.492 38.7002C118.686 36.7524 115.724 36.9375 113.541 37.4634C105.692 39.6894 98.4042 45.1154 90.5912 54.5304C84.847 61.9046 81.2839 68.2739 79.3848 74.5656C77.9209 78.8012 77.476 85.0312 81.0489 88.7261C84.0867 91.8636 88.1148 91.1838 90.9591 90.0558C97.1221 87.0567 102.661 80.5944 105.421 73.1583C106.088 70.948 106.827 67.8253 105.68 65.4442ZM119.852 42.1476C119.036 51.3923 111.763 56.8189 109.963 57.2511C108.872 57.4672 107.012 56.9883 108.673 53.1086C111.119 47.8828 115.296 43.4465 119.777 41.1738C119.886 41.5603 119.883 41.8071 119.852 42.1476ZM162.995 43.322C159.082 45.5176 155.027 46.9394 150.118 46.4449C148.757 47.9603 147.432 49.5216 146.211 51.1291C153.102 52.8606 160.406 49.0112 164.48 45.3478C168.79 41.6529 171 37 171 37C171 37 167.77 40.648 162.995 43.322ZM89.0593 51.0205H83.9275L81.0327 55.6677H86.1635L89.0593 51.0205Z" fill="#5E5E5E"/>
<path d="M150.39 85.7077C149.835 86.0759 149.056 85.7928 149.347 84.9491C150.073 82.8009 152.96 78.4231 152.96 78.4231L161 64.5167H155.493C155.231 64.9361 154.671 65.8989 154.671 65.8989C154.416 65.485 153.654 64.5648 153.341 64.3658C151.995 63.5366 150.021 63.9286 148.66 64.6803C142.739 68.0565 138.419 74.7271 135.011 79.9291C135.011 79.9291 131.425 85.7117 129.434 86.1417C127.88 86.2646 128.04 84.2228 128.108 83.7471C128.709 80.3094 130.104 77.0414 131.51 74.0798C134.37 72.1465 137.634 69.6148 140.599 66.8375C147.036 60.8373 152.463 54.0397 153.256 52.5207C153.256 52.5207 152.397 52.6897 151.384 52.7201C146.432 59.4562 136.298 69.2464 133.226 70.7038C134.587 67.5114 143.38 52.275 150.863 44.9866L152.04 43.8814C153.861 42.1475 155.747 40.3676 157.218 40.076C157.373 40.0607 157.573 40.076 157.746 40.4295C157.811 41.7795 157.296 42.7771 156.704 43.9124L155.876 45.5698C155.876 45.5698 157.05 45.3549 157.821 45.1088C158.715 43.4677 159.705 41.6258 159.34 39.4321C159.218 38.7261 158.694 38.1892 158.01 38.0663C155.777 37.652 153.345 39.2627 151.387 40.5674L151.308 40.6131C141.246 48.3008 132.749 59.3795 125.32 74.5092C124.782 74.9076 122.702 75.3837 122.348 75.1533C123.082 73.6806 124.006 71.7007 124.468 69.5525C124.548 68.9384 124.622 68.3098 124.622 67.6961C124.622 66.3754 124.297 65.133 123.084 64.2742C121.661 63.5835 119.903 63.906 118.718 64.4272C113.408 66.5755 109.439 71.885 106.575 76.2576C105.035 79.0357 103.499 82.0111 103.074 85.4182C102.774 88.0876 103.384 89.8065 104.941 90.6659C106.541 91.4632 108.556 90.6344 109.347 90.2359C114.727 87.4737 118.486 81.9348 121.448 76.8709C121.566 76.8558 123.184 76.8101 124.408 76.5027C124.424 76.5027 124.431 76.5027 124.458 76.5187C124.388 76.748 123.755 78.59 123.755 78.59C121.878 83.9599 121.009 87.6123 122.783 89.7756C125.318 92.8292 129.514 89.6687 132.928 85.4943C132.195 90.4963 134.853 91.2794 136.88 90.8961C139.208 90.2826 141.802 87.8576 143.005 86.6151C142.619 88.0725 142.724 90.6816 144.841 90.942C146.293 91.2037 147.379 90.4338 148.636 89.7738C153.144 87.3798 158.541 79.4026 159.942 77.0963H158.105C156.113 80.0322 153.578 83.8809 150.39 85.7077ZM109.923 85.1735C109.637 84.759 109.542 84.3061 109.532 83.8163C109.478 80.8074 112.797 75.4194 115.14 72.4841H115.145C116.127 74.5807 118.35 75.9285 119.693 76.4964C118.026 80.118 112.308 87.874 109.923 85.1735ZM120.634 74.8774C120.475 74.9856 117.671 74.0643 117.129 71.5326C116.67 69.3529 118.209 67.6498 119.698 66.7914C120.337 66.3 121.3 66.1318 122.006 66.3763C122.662 66.8067 122.839 67.5745 122.839 68.4017C122.839 68.909 122.77 69.4303 122.709 69.9058L122.696 70.0136C122.226 71.7147 121.533 73.3496 120.634 74.8774ZM143.122 84.2069C143.12 84.2069 142.59 84.6671 142.59 84.6671C141.834 85.3267 141.056 86.0325 140.116 85.6794C139.856 85.5876 139.674 85.2502 139.63 84.9885C139.587 83.1011 140.459 81.3523 141.304 79.6492L141.521 79.2041C143.952 75.2454 146.778 70.5807 150.928 67.3435C151.628 66.8514 152.387 66.4379 153.188 66.7604C153.372 66.929 153.587 67.2206 153.587 67.5118C153.587 67.6043 153.502 67.8496 153.454 67.9261C152.295 69.7529 151.191 71.6706 150.117 73.5118C148.019 77.1485 145.843 80.9072 143.122 84.2069Z" fill="#5E5E5E"/>
<path d="M269.626 61.3908C269.626 56.4827 273.205 53.0555 279.708 53.0555C283.676 53.0555 286.923 54.3225 288.682 55.5636C288.934 55.7408 289.383 56.1707 289.114 56.9703C288.769 57.8314 288.136 59.1265 287.682 59.9678C287.417 60.458 286.742 60.3935 286.396 60.2182C285.143 59.5833 283.088 58.5091 281.2 58.3111C280.722 58.259 280.241 58.2382 279.76 58.2488C278.098 58.2859 276.708 58.8632 276.219 60.1318C276.123 60.3718 276.07 60.6267 276.061 60.885C276.016 62.5567 278.342 63.1612 281.16 63.6454C286.4 64.543 290.364 66.0792 290.364 71.4722C290.364 76.052 286.724 80.191 279.593 80.0642C274.891 79.9691 271.556 78.3805 269.769 76.839C269.708 76.7867 269.027 76.0938 269.392 75.2604C269.809 74.1876 270.514 72.9581 271.067 72.3052C271.374 71.8859 272.185 71.8193 272.607 72.0807C274.08 72.9962 276.505 74.4642 279.3 74.5615C279.52 74.5692 279.739 74.5705 279.953 74.5648C282.467 74.5039 283.988 73.5506 283.957 71.9449C283.929 70.5302 281.936 69.7038 278.762 69.1056C273.7 68.152 269.627 66.4833 269.627 61.3908M315.618 68.3793C312.048 68.426 308.775 69.4017 308.68 72.1916C308.679 74.4055 310.475 75.4929 312.996 75.3505C315.414 75.1177 317.257 74.069 318.07 72.6775C318.37 72.1618 318.416 70.2321 318.398 69.4074C318.393 69.2318 318.046 68.8996 317.894 68.8357C317.136 68.516 316.574 68.4173 315.617 68.3786M303.739 57.1375C305.408 55.6437 308.718 53.3185 313.993 53.4411C320.955 53.5858 324.632 56.8494 324.975 64.6563C325.116 67.8758 324.882 76.8559 324.826 79.0933C324.818 79.4143 324.709 79.6362 324.277 79.6445C323.13 79.6905 320.482 79.6723 319.265 79.6564C318.651 79.6266 318.58 79.3219 318.572 79.0029C318.566 78.7942 318.549 78.1755 318.536 77.6711C318.529 77.4034 318.277 77.4111 318.213 77.4796C316.58 79.2232 313.906 80.0651 311.062 80.0651C306.739 80.0651 302.43 77.5223 302.444 72.4868C302.457 67.3296 306.113 64.7858 310.131 64.186C312.703 63.8031 315.602 64.1436 317.798 65.016C317.938 65.0723 318.225 64.9908 318.228 64.7918C318.237 64.1346 318.205 62.8823 318.079 62.2887C317.756 60.7764 316.495 59.5594 313.844 59.2315C313.298 59.1643 312.749 59.1421 312.199 59.1858C310.092 59.3514 307.556 60.9943 306.506 61.6094C306.259 61.7538 305.872 61.6481 305.747 61.4868C305.134 60.6952 303.594 58.3799 303.473 58.01C303.352 57.641 303.523 57.3303 303.738 57.1362L303.739 57.1375ZM327.27 66.7377C327.229 59.5452 332.24 53.4775 340.378 53.4242C345.455 53.3911 349.144 55.6931 349.795 56.7788C349.927 57.0339 349.859 57.2468 349.767 57.5035C349.337 58.4111 348.252 60.1646 347.478 61.1583C347.148 61.5816 346.791 61.2189 346.375 60.9423C345.221 60.1739 343.029 59.2342 340.872 59.2342C336.958 59.2348 334.044 61.9184 334.076 66.8556C334.107 71.5934 336.898 74.1972 340.886 74.2916C342.97 74.3439 344.99 73.1459 346.076 72.1645C346.417 71.8667 346.77 72.0158 347.16 72.3205C347.925 73.1025 349.022 74.3098 349.631 75.1408C350.029 75.6026 349.731 76.0544 349.588 76.2359C347.937 78.3249 344.749 80.083 340.529 80.1069C331.694 80.1688 327.311 73.9567 327.271 66.7387M369.444 79.7826C369.858 79.7515 374.284 79.1407 375.642 78.8297C375.979 78.7528 376.099 78.4693 375.911 78.1884C375.152 77.051 373.158 73.8209 371.069 70.9293C369.148 68.2706 367.124 65.9322 366.469 65.0326C366.309 64.814 366.318 64.5987 366.492 64.4291C367.737 63.2102 372.948 58.1011 374.907 55.9912C375.666 55.1704 375.21 54.8173 374.566 54.6255C373.322 54.2546 371.309 53.7922 370.164 53.5507C369.682 53.4487 369.1 53.4845 368.678 53.9184C366.719 55.7451 360.741 61.7452 358.957 63.5388C358.635 63.8624 358.448 63.7905 358.446 63.3281C358.432 59.8701 358.364 45.0651 358.24 42.6299C358.231 42.308 357.844 42.0636 357.626 42.052C356.504 41.9933 353.669 41.9764 352.552 42.042C352.239 42.0775 351.94 42.3964 351.912 42.666C351.655 46.5599 352.022 75.1438 352.175 79.1424C352.186 79.4315 352.401 79.6558 352.676 79.672C353.79 79.7366 356.547 79.7323 357.834 79.7081C358.467 79.7081 358.545 79.2629 358.545 79.2629L358.64 71.5928C358.64 71.5928 358.705 71.2516 358.811 71.139C359.265 70.6505 360.52 69.305 361.055 68.785C361.184 68.6601 361.387 68.6691 361.518 68.8456C362.154 69.7035 363.967 72.4924 365.648 74.9832C367.193 77.2713 368.635 79.302 368.735 79.4454C368.968 79.7766 369.239 79.7899 369.444 79.7836V79.7826H369.444ZM294.179 79.7561C294.568 79.769 297.521 79.7657 298.829 79.7641C299.27 79.7727 299.499 79.4391 299.513 79.1447C299.791 73.5384 299.672 46.8464 299.497 42.6316C299.482 42.2673 299.326 42.1305 299.077 42.0973C297.954 41.947 294.763 41.9821 293.741 42.2497C293.541 42.3017 293.423 42.4537 293.416 42.6492C293.166 53.5133 293.335 78.5604 293.388 79.0347C293.441 79.5097 293.689 79.7396 294.179 79.7561H294.179Z" fill="#5E5E5E"/>
<path d="M215.151 68.609C213.331 68.6229 211.79 67.5385 211.222 65.846C211.2 65.782 211.181 65.7177 211.163 65.6529C210.543 63.4853 211.744 61.2178 213.897 60.4917L248.424 48.9244C248.834 48.8058 249.258 48.7439 249.685 48.7403C251.553 48.7257 253.137 49.834 253.719 51.5623L253.771 51.7292C254.416 53.9868 252.812 56.002 250.889 56.6479C250.888 56.6489 250.538 56.7671 216.554 68.3702C216.102 68.5242 215.628 68.6048 215.151 68.609Z" fill="#231F20"/>
<path d="M220.906 85.5891C219.072 85.6023 217.525 84.5332 216.964 82.8648C216.942 82.8013 216.922 82.7374 216.904 82.673C216.276 80.4796 217.476 78.1882 219.636 77.4612L254.164 65.7879C254.61 65.6388 255.071 65.5627 255.534 65.5584C257.373 65.5444 258.989 66.668 259.559 68.3552L259.612 68.5308C259.945 69.697 259.748 71.0076 259.085 72.0421C258.591 72.8112 257.032 73.4882 257.032 73.4882L222.373 85.339C221.9 85.499 221.405 85.5837 220.906 85.5898V85.5891Z" fill="#231F20"/>
<path d="M249.648 85.6632C248.753 85.6718 247.879 85.3969 247.15 84.8779C246.42 84.3588 245.874 83.6224 245.589 82.7739L234.066 48.5453L234.008 48.3532C233.384 46.1704 234.585 43.8936 236.737 43.1682C237.167 43.0235 237.612 42.9479 238.061 42.944C238.726 42.939 239.371 43.089 239.977 43.3888C240.477 43.636 240.923 43.9796 241.29 44.3997C241.656 44.8199 241.936 45.3085 242.113 45.8372L253.636 80.0628L253.669 80.1728C254.316 82.439 253.118 84.7172 250.966 85.4426C250.541 85.5846 250.097 85.659 249.648 85.6632Z" fill="#5E5E5E"/>
<path d="M232.52 91.4283C231.624 91.4368 230.749 91.1616 230.02 90.6422C229.29 90.1227 228.744 89.3857 228.459 88.5367L216.939 54.3094C216.76 53.7813 216.688 53.2233 216.725 52.6671C216.763 52.111 216.909 51.5677 217.157 51.0684C217.405 50.569 217.749 50.1235 218.169 49.7571C218.589 49.3908 219.077 49.111 219.605 48.9336C220.031 48.7913 220.477 48.7167 220.925 48.7124C221.821 48.7035 222.695 48.9783 223.425 49.4974C224.154 50.0164 224.7 50.753 224.985 51.6016L236.506 85.8303C236.684 86.3585 236.757 86.9169 236.719 87.4733C236.682 88.0297 236.535 88.5732 236.287 89.0727C236.039 89.5721 235.695 90.0178 235.274 90.384C234.854 90.7503 234.365 91.0299 233.836 91.207C233.411 91.3494 232.967 91.4239 232.519 91.4279L232.52 91.4283Z" fill="#5E5E5E"/>
<path d="M243.968 77.9549L252.002 75.2078L249.376 67.4075L241.332 70.1258L243.968 77.9549Z" fill="#5E5E5E"/>
<path d="M226.866 83.8022L234.9 81.0554L232.253 73.1954L224.211 75.9148L226.866 83.8022Z" fill="#5E5E5E"/>
<path d="M238.247 60.9646L246.283 58.2211L243.687 50.5118L235.637 53.209L238.247 60.9646Z" fill="#5E5E5E"/>
<path d="M221.143 66.8039L229.179 64.0604L226.551 56.2528L218.501 58.9496L221.143 66.8039Z" fill="#5E5E5E"/>
<path d="M449.348 63.6552C449.301 60.7918 450.538 58.5628 453.056 56.9672C451.636 54.9025 449.541 53.7419 446.772 53.4825C445.787 53.39 444.528 53.6228 442.996 54.1868C441.348 54.7978 440.421 55.1015 440.215 55.1015C439.78 55.1015 438.945 54.8447 437.707 54.3272C436.472 53.811 435.418 53.5529 434.548 53.5529C433.084 53.5768 431.721 53.9815 430.463 54.7671C429.204 55.5536 428.197 56.6279 427.442 57.9875C426.48 59.6777 426 61.696 426 64.0419C426 66.1536 426.354 68.2649 427.063 70.3779C427.727 72.3962 428.575 74.1677 429.604 75.6915C430.519 77.0763 431.323 78.0852 432.007 78.7196C432.993 79.7046 433.998 80.1748 435.03 80.127C435.693 80.1026 436.562 79.8567 437.638 79.3861C438.645 78.9425 439.653 78.7192 440.66 78.7192C441.598 78.7192 442.57 78.9412 443.579 79.3861C444.699 79.8567 445.616 80.0909 446.325 80.0909C447.378 80.0449 448.362 79.5869 449.279 78.7196C449.598 78.4367 449.948 78.05 450.325 77.5573C450.76 76.9834 451.178 76.3965 451.579 75.7975C451.912 75.281 452.227 74.7528 452.523 74.2138C452.841 73.6333 453.121 73.0337 453.364 72.4184C453.477 72.1603 453.58 71.8967 453.673 71.6269C453.764 71.3571 453.856 71.0823 453.947 70.8003C453.1 70.4258 452.333 69.8956 451.647 69.2147C450.138 67.7153 449.371 65.8608 449.348 63.6552ZM474.245 69.9299H474.078L467.106 53.9955H461.63V79.7046H466.402V63.0542H466.624L472.451 76.2758H475.797L481.606 63.0542H481.828V79.7046H486.656V53.9955H481.218L474.245 69.9299ZM445.021 50.6321C446.234 49.1065 446.841 47.4641 446.841 45.7039V45.3524C446.841 45.2342 446.83 45.1173 446.807 45C445.96 45.0469 445.062 45.3172 444.111 45.809C443.162 46.3027 442.378 46.9254 441.759 47.6748C440.523 49.1544 439.905 50.7373 439.905 52.4271V52.7605C439.905 52.867 439.917 52.978 439.939 53.0962C441.84 53.2835 443.533 52.4618 445.021 50.6321ZM542.43 53.9955H547.794V79.7051H542.43V53.9955ZM563.993 58.0822C567.174 58.0822 568.857 60.531 568.857 63.1679H574V62.6215C574 57.6495 570.208 53.5064 563.956 53.5064C557.26 53.5064 553.265 57.9135 553.265 65.429V68.3299C553.265 75.8431 557.223 80.1956 563.937 80.1956C570.355 80.1956 574 75.9938 574 71.3237V70.7588H568.857C568.857 73.4155 567.211 75.6189 564.031 75.6189C560.775 75.6189 558.703 73.3018 558.703 68.3475V65.4488C558.703 60.5116 560.794 58.0822 563.993 58.0822ZM507.17 70.2304C507.17 73.6782 505.154 75.5796 502.195 75.5796C499.217 75.5796 497.201 73.6962 497.201 70.2304V53.9955H491.874V70.9839C491.874 76.4662 495.757 80.1951 502.194 80.1951C508.612 80.1951 512.515 76.4662 512.515 70.9839V53.9955H507.17V70.2304ZM530.261 64.7314L526.432 63.8659C524.176 63.3935 522.992 62.3959 522.992 60.9073C522.992 58.9305 524.601 57.6869 527.192 57.6869C530.114 57.6869 531.575 59.3632 531.704 61.1717H536.698C536.643 56.632 532.851 53.468 527.209 53.468C521.865 53.468 517.647 56.2751 517.647 61.3224C517.647 65.692 520.607 67.7248 524.158 68.4991L527.949 69.3835C530.502 69.9673 531.797 70.8156 531.797 72.5659C531.797 74.5639 530.206 75.9203 527.228 75.9203C524.028 75.9203 522.345 74.2246 522.198 72.3218H517.055C517.131 75.9573 519.535 80.1951 526.97 80.1951C533.221 80.1951 537.088 77.0876 537.088 72.038C537.086 67.367 533.96 65.54 530.261 64.7314Z" fill="#5E5E5E"/>
<g clip-path="url(#clip0_33_29)">
<path d="M736.68 81.6297C738.518 81.8079 740.355 81.9993 742.188 82.1973L746.236 72.204L750.082 83.1191C752.056 83.3664 754.029 83.626 755.996 83.897L749.252 64.7566L755.998 48.0964H750.284L750.225 48.1783L746.58 57.1785L743.381 48.0977H737.739L743.563 64.6263L736.68 81.6297H736.68ZM732.413 81.2381V48.0964H726.773V80.773C728.654 80.9182 730.536 81.0744 732.413 81.2381ZM690.05 79.3848C691.572 79.3848 693.093 79.3962 694.611 79.4086V67.2329H701.385V62.0479H694.611V53.2875H702.414V48.0964H688.95V79.3892C689.315 79.3892 689.683 79.3835 690.05 79.3848ZM672.54 79.7016C674.419 79.6347 676.3 79.5784 678.183 79.5326V53.2884H683.454V48.0977H667.269V53.2884H672.541V79.7016H672.54ZM629.41 83.1961V63.4511L636.087 82.3988C638.141 82.1683 640.197 81.9513 642.26 81.7463V48.0969H636.848V68.5494L629.643 48.0969H624V83.9058H624.034C625.822 83.6585 627.615 83.4236 629.41 83.1961ZM661.831 53.2871V48.0969H648.366V81.1853C652.846 80.7986 657.331 80.4742 661.82 80.2124V75.0174C659.217 75.1687 656.619 75.343 654.028 75.537V67.2351H660.802V62.0471H654.028V53.2871H661.831ZM713.59 74.7692V48.0951H707.926V79.7205C712.432 79.886 716.92 80.1165 721.393 80.4069V75.2088C718.797 75.0411 716.196 74.8959 713.59 74.7692Z" fill="#5E5E5E"/>
</g>
<defs>
<clipPath id="clip0_33_29">
<rect width="132" height="132" fill="white" transform="translate(624)"/>
</clipPath>
</defs>
</svg>
