<svg width="32" height="32" viewBox="0 0 32 32" fill="none" xmlns="http://www.w3.org/2000/svg">
<path d="M29.9468 8.00016C28.9201 8.46683 27.8135 8.7735 26.6668 8.92016C27.8401 8.2135 28.7468 7.0935 29.1735 5.74683C28.0668 6.4135 26.8401 6.88016 25.5468 7.14683C24.4935 6.00016 23.0135 5.3335 21.3335 5.3335C18.2001 5.3335 15.6401 7.8935 15.6401 11.0535C15.6401 11.5068 15.6935 11.9468 15.7868 12.3602C11.0401 12.1202 6.81347 9.84016 4.00013 6.38683C3.5068 7.22683 3.2268 8.2135 3.2268 9.2535C3.2268 11.2402 4.2268 13.0002 5.77347 14.0002C4.8268 14.0002 3.9468 13.7335 3.17347 13.3335V13.3735C3.17347 16.1468 5.1468 18.4668 7.76013 18.9868C6.9211 19.2164 6.04026 19.2484 5.1868 19.0802C5.54894 20.2168 6.25818 21.2114 7.21482 21.9241C8.17146 22.6368 9.3274 23.0317 10.5201 23.0535C8.49831 24.6541 5.99213 25.5192 3.41347 25.5068C2.96013 25.5068 2.5068 25.4802 2.05347 25.4268C4.5868 27.0535 7.60013 28.0002 10.8268 28.0002C21.3335 28.0002 27.1068 19.2802 27.1068 11.7202C27.1068 11.4668 27.1068 11.2268 27.0935 10.9735C28.2135 10.1735 29.1735 9.16016 29.9468 8.00016Z" fill="white"/>
</svg>
