<svg width="1148" height="575" viewBox="0 0 1148 575" fill="none" xmlns="http://www.w3.org/2000/svg">
<path d="M1148 31.0252C1148 13.8905 1133.52 0 1115.66 0H32.338C14.4783 0 0 13.8904 0 31.0252V270.953C0 288.088 14.4783 301.978 32.338 301.978H1115.66C1133.52 301.978 1148 288.088 1148 270.953V31.0252Z" fill="#E1562B"/>
<path d="M662.93 220.279C662.93 203.144 648.451 189.254 630.592 189.254H32.338C14.4783 189.254 0 203.144 0 220.279V543.975C0 561.11 14.4783 575 32.338 575H630.592C648.451 575 662.93 561.11 662.93 543.975V220.279Z" fill="#E1562B"/>
<path d="M662.93 333.004C662.93 310.625 685.207 302.996 696.346 301.978H662.93V333.004Z" fill="#E1562B"/>
</svg>
