<svg width="1065" height="575" viewBox="0 0 1065 575" fill="none" xmlns="http://www.w3.org/2000/svg">
<path d="M0 31.0252C0 13.8905 13.4315 0 30 0H1035C1051.57 0 1065 13.8904 1065 31.0252V270.953C1065 288.088 1051.57 301.978 1035 301.978H30C13.4315 301.978 0 288.088 0 270.953V31.0252Z" fill="#E1562B"/>
<path d="M450 220.279C450 203.144 463.431 189.254 480 189.254H1035C1051.57 189.254 1065 203.144 1065 220.279V543.975C1065 561.11 1051.57 575 1035 575H480C463.431 575 450 561.11 450 543.975V220.279Z" fill="#E1562B"/>
<path d="M450 333.004C450 310.625 429.333 302.996 419 301.978H450V333.004Z" fill="#E1562B"/>
</svg>
