<svg width="1065" height="404" viewBox="0 0 1065 404" fill="none" xmlns="http://www.w3.org/2000/svg">
<path d="M5.42462e-06 372.975C2.42868e-06 390.11 13.4315 404 30 404L1035 404C1051.57 404 1065 390.11 1065 372.975L1065 133.047C1065 115.912 1051.57 102.022 1035 102.022L30.0001 102.022C13.4315 102.022 5.03709e-05 115.912 4.7375e-05 133.047L5.42462e-06 372.975Z" fill="#E1562B"/>
<path d="M450 183.722C450 200.856 463.431 214.747 480 214.747L1035 214.747C1051.57 214.747 1065 200.856 1065 183.722L1065 32.0002C1065 14.8655 1051.57 0.000244897 1035 0.000242L480 0.000236514C463.432 0.000233617 450 14.8655 450 32.0002L450 183.722Z" fill="#E1562B"/>
<path d="M450 70.9967C450 93.3755 429.333 101.005 419 102.022L450 102.022L450 70.9967Z" fill="#E1562B"/>
</svg>
